<?xml version="1.0" encoding="UTF-8"?><svg id="Objects" xmlns="http://www.w3.org/2000/svg" viewBox="0 0 180.59 152.99"><defs><style>.cls-1{fill:#c12ddd;}.cls-1,.cls-2{stroke:#000;stroke-linecap:round;stroke-linejoin:round;stroke-width:3px;}.cls-3{fill:#a5d601;stroke-width:0px;}.cls-2{fill:#e28100;}</style></defs><path class="cls-3" d="M28.1,146.31h2.44v1.62h-2.44v3.32h3.07v1.62h-4.85v-11.32h4.85v1.62h-3.07v3.15Z"/><path class="cls-3" d="M41.45,141.54l-1.86,5.5,1.99,5.82h-1.88l-1.44-4.48h-.03l-1.46,4.48h-1.67l1.99-5.82-1.86-5.5h1.84l1.33,4.17h.03l1.36-4.17h1.65Z"/><path class="cls-3" d="M50.97,144.34v1.47c0,1.81-.87,2.8-2.65,2.8h-.84v4.25h-1.78v-11.32h2.62c1.78,0,2.65.99,2.65,2.8ZM47.48,143.16v3.83h.84c.57,0,.87-.26.87-1.07v-1.7c0-.81-.31-1.07-.87-1.07h-.84Z"/><path class="cls-3" d="M55.03,141.54h1.78v9.71h2.93v1.62h-4.71v-11.32Z"/><path class="cls-3" d="M63.61,144.26c0-1.81.95-2.85,2.7-2.85s2.7,1.04,2.7,2.85v5.89c0,1.81-.95,2.85-2.7,2.85s-2.7-1.04-2.7-2.85v-5.89ZM65.39,150.26c0,.81.36,1.12.92,1.12s.92-.31.92-1.12v-6.11c0-.81-.36-1.12-.92-1.12s-.92.31-.92,1.12v6.11Z"/><path class="cls-3" d="M77.11,152.86c-.1-.29-.16-.47-.16-1.39v-1.78c0-1.05-.36-1.44-1.16-1.44h-.61v4.61h-1.78v-11.32h2.69c1.84,0,2.64.86,2.64,2.6v.89c0,1.16-.37,1.91-1.16,2.28v.03c.89.37,1.18,1.21,1.18,2.39v1.75c0,.55.02.95.19,1.38h-1.81ZM75.17,143.16v3.48h.7c.66,0,1.07-.29,1.07-1.2v-1.12c0-.81-.27-1.16-.91-1.16h-.86Z"/><path class="cls-3" d="M84.91,146.31h2.44v1.62h-2.44v3.32h3.07v1.62h-4.85v-11.32h4.85v1.62h-3.07v3.15Z"/><path class="cls-3" d="M94.03,151.15v1.71h-1.71v-1.71h1.71Z"/><path class="cls-3" d="M106.7,141.41c1.73,0,2.62,1.04,2.62,2.85v.36h-1.68v-.47c0-.81-.32-1.12-.89-1.12s-.89.31-.89,1.12.36,1.44,1.52,2.46c1.49,1.31,1.96,2.25,1.96,3.54,0,1.81-.91,2.85-2.65,2.85s-2.65-1.04-2.65-2.85v-.7h1.68v.81c0,.81.36,1.1.92,1.1s.92-.29.92-1.1-.36-1.44-1.52-2.46c-1.49-1.31-1.96-2.25-1.96-3.54,0-1.81.89-2.85,2.62-2.85Z"/><path class="cls-3" d="M119.34,152.86h-1.8l-.31-2.05h-2.18l-.31,2.05h-1.63l1.81-11.32h2.6l1.81,11.32ZM115.28,149.27h1.71l-.84-5.73h-.03l-.84,5.73Z"/><path class="cls-3" d="M125.67,150.77h.03l1.34-9.24h1.63l-1.75,11.32h-2.65l-1.75-11.32h1.8l1.34,9.24Z"/><path class="cls-3" d="M132.57,144.26c0-1.81.95-2.85,2.7-2.85s2.7,1.04,2.7,2.85v5.89c0,1.81-.95,2.85-2.7,2.85s-2.7-1.04-2.7-2.85v-5.89ZM134.35,150.26c0,.81.36,1.12.92,1.12s.92-.31.92-1.12v-6.11c0-.81-.36-1.12-.92-1.12s-.92.31-.92,1.12v6.11Z"/><path class="cls-3" d="M146.08,152.86c-.1-.29-.16-.47-.16-1.39v-1.78c0-1.05-.36-1.44-1.17-1.44h-.61v4.61h-1.78v-11.32h2.69c1.84,0,2.64.86,2.64,2.6v.89c0,1.16-.37,1.91-1.16,2.28v.03c.89.37,1.18,1.21,1.18,2.39v1.75c0,.55.02.95.19,1.38h-1.81ZM144.14,143.16v3.48h.7c.66,0,1.07-.29,1.07-1.2v-1.12c0-.81-.27-1.16-.91-1.16h-.86Z"/><path class="cls-3" d="M153.81,151.15v1.71h-1.71v-1.71h1.71Z"/><path class="cls-3" d="M12.42,110.19v.94c0,2.72-.83,4.45-2.68,5.32,2.23.87,3.09,2.87,3.09,5.66v2.15c0,4.08-2.15,6.26-6.3,6.26H0v-26.41h6.26c4.3,0,6.15,2,6.15,6.08ZM4.15,107.89v6.98h1.62c1.55,0,2.49-.68,2.49-2.79v-1.47c0-1.89-.64-2.72-2.11-2.72h-2ZM4.15,118.65v8.11h2.38c1.4,0,2.15-.64,2.15-2.6v-2.3c0-2.45-.79-3.21-2.68-3.21h-1.85Z"/><path class="cls-3" d="M29.66,130.53c-.23-.68-.38-1.09-.38-3.25v-4.15c0-2.45-.83-3.36-2.72-3.36h-1.43v10.75h-4.15v-26.41h6.26c4.3,0,6.15,2,6.15,6.08v2.08c0,2.72-.87,4.49-2.72,5.36,2.08.87,2.75,2.87,2.75,5.62v4.08c0,1.28.04,2.23.45,3.21h-4.23ZM25.13,107.89v8.11h1.62c1.55,0,2.49-.68,2.49-2.79v-2.6c0-1.89-.64-2.72-2.11-2.72h-2Z"/><path class="cls-3" d="M45.97,115.25h5.7v3.77h-5.7v7.74h7.17v3.77h-11.32v-26.41h11.32v3.77h-7.17v7.36Z"/><path class="cls-3" d="M70.57,116.46l-1.51,14.08h-5.7l-2.94-26.41h4.04l2.23,20.83,2-20.83h4l2.08,20.98,2.15-20.98h3.62l-2.94,26.41h-5.51l-1.51-14.08Z"/><path class="cls-3" d="M94.54,125.67l3.17-21.55h3.81l-4.08,26.41h-6.19l-4.08-26.41h4.19l3.17,21.55Z"/><path class="cls-3" d="M113.26,115.25h5.7v3.77h-5.7v7.74h7.17v3.77h-11.32v-26.41h11.32v3.77h-7.17v7.36Z"/><path class="cls-3" d="M137.34,130.53c-.23-.68-.38-1.09-.38-3.25v-4.15c0-2.45-.83-3.36-2.72-3.36h-1.43v10.75h-4.15v-26.41h6.26c4.3,0,6.15,2,6.15,6.08v2.08c0,2.72-.87,4.49-2.72,5.36,2.08.87,2.75,2.87,2.75,5.62v4.08c0,1.28.04,2.23.45,3.21h-4.23ZM132.81,107.89v8.11h1.62c1.55,0,2.49-.68,2.49-2.79v-2.6c0-1.89-.64-2.72-2.11-2.72h-2Z"/><path class="cls-3" d="M155.08,103.82c4.04,0,6.11,2.42,6.11,6.64v.83h-3.92v-1.09c0-1.89-.75-2.6-2.08-2.6s-2.08.72-2.08,2.6c0,5.43,8.11,6.45,8.11,14,0,4.23-2.11,6.64-6.19,6.64s-6.19-2.42-6.19-6.64v-1.62h3.92v1.89c0,1.89.83,2.57,2.15,2.57s2.15-.68,2.15-2.57c0-5.43-8.11-6.45-8.11-14,0-4.23,2.08-6.64,6.11-6.64Z"/><path class="cls-3" d="M173.42,115.25h5.7v3.77h-5.7v7.74h7.17v3.77h-11.32v-26.41h11.32v3.77h-7.17v7.36Z"/><path class="cls-2" d="M82.2,74.77c-3.53-3.87-8.45-5.27-13-4.23-.95,4.98.33,10.37,3.86,14.23,3.53,3.87,8.45,5.27,13,4.23.95-4.98-.33-10.37-3.86-14.23Z"/><path class="cls-2" d="M107.08,84.77c3.53-3.86,4.81-9.25,3.86-14.23-4.55-1.04-9.47.36-13,4.23-3.53,3.87-4.81,9.25-3.86,14.23,4.55,1.04,9.47-.36,13-4.23Z"/><path class="cls-2" d="M82.2,51.57c-3.53-3.87-8.45-5.27-13-4.23-.95,4.98.33,10.37,3.86,14.23,3.53,3.87,8.45,5.27,13,4.23.95-4.98-.33-10.37-3.86-14.23Z"/><path class="cls-2" d="M107.08,61.58c3.53-3.87,4.81-9.25,3.86-14.23-4.55-1.04-9.47.36-13,4.23-3.53,3.87-4.81,9.25-3.86,14.23,4.55,1.04,9.47-.36,13-4.23Z"/><path class="cls-2" d="M82.2,28.37c-3.53-3.87-8.45-5.27-13-4.23-.95,4.98.33,10.37,3.86,14.23,3.53,3.87,8.45,5.27,13,4.23.95-4.98-.33-10.37-3.86-14.23Z"/><path class="cls-2" d="M107.08,38.38c3.53-3.87,4.81-9.25,3.86-14.23-4.55-1.04-9.47.36-13,4.23-3.53,3.87-4.81,9.25-3.86,14.23,4.55,1.04,9.47-.36,13-4.23Z"/><path class="cls-2" d="M96.53,15.06c0-5.47-2.57-10.27-6.46-13.06-3.89,2.79-6.46,7.59-6.46,13.06s2.57,10.27,6.46,13.06c3.89-2.79,6.46-7.59,6.46-13.06Z"/><path class="cls-1" d="M30.15,75.08c-3.53-3.79-8.45-5.17-13-4.15-.95,4.89.33,10.17,3.86,13.97,3.53,3.79,8.45,5.17,13,4.15.95-4.89-.33-10.17-3.86-13.97Z"/><path class="cls-1" d="M55.02,84.9c3.53-3.79,4.81-9.08,3.86-13.97-4.55-1.02-9.47.36-13,4.15-3.53,3.79-4.81,9.08-3.86,13.97,4.55,1.02,9.47-.36,13-4.15Z"/><path class="cls-1" d="M30.15,52.32c-3.53-3.79-8.45-5.17-13-4.15-.95,4.89.33,10.17,3.86,13.97,3.53,3.79,8.45,5.17,13,4.15.95-4.89-.33-10.17-3.86-13.97Z"/><path class="cls-1" d="M55.02,62.13c3.53-3.79,4.81-9.08,3.86-13.97-4.55-1.02-9.47.36-13,4.15-3.53,3.79-4.81,9.08-3.86,13.97,4.55,1.02,9.47-.36,13-4.15Z"/><path class="cls-1" d="M44.48,39.25c0-5.36-2.57-10.08-6.46-12.81-3.89,2.73-6.46,7.45-6.46,12.81s2.57,10.08,6.46,12.81c3.89-2.73,6.46-7.45,6.46-12.81Z"/><path class="cls-1" d="M134.26,75.08c-3.53-3.79-8.45-5.17-13-4.15-.95,4.89.33,10.17,3.86,13.97,3.53,3.79,8.45,5.17,13,4.15.95-4.89-.33-10.17-3.86-13.97Z"/><path class="cls-1" d="M159.13,84.9c3.53-3.79,4.81-9.08,3.86-13.97-4.55-1.02-9.47.36-13,4.15-3.53,3.79-4.81,9.08-3.86,13.97,4.55,1.02,9.47-.36,13-4.15Z"/><path class="cls-1" d="M134.26,52.32c-3.53-3.79-8.45-5.17-13-4.15-.95,4.89.33,10.17,3.86,13.97,3.53,3.79,8.45,5.17,13,4.15.95-4.89-.33-10.17-3.86-13.97Z"/><path class="cls-1" d="M159.13,62.13c3.53-3.79,4.81-9.08,3.86-13.97-4.55-1.02-9.47.36-13,4.15-3.53,3.79-4.81,9.08-3.86,13.97,4.55,1.02,9.47-.36,13-4.15Z"/><path class="cls-1" d="M148.59,39.25c0-5.36-2.58-10.08-6.46-12.81-3.89,2.73-6.46,7.45-6.46,12.81s2.57,10.08,6.46,12.81c3.89-2.73,6.46-7.45,6.46-12.81Z"/></svg>