<?xml version="1.0" encoding="UTF-8"?><svg id="Objects" xmlns="http://www.w3.org/2000/svg" viewBox="0 0 236.82 156.76"><defs><style>.cls-1{letter-spacing:-.02em;}.cls-2{font-family:Thunder-MediumLC, Thunder;font-size:20.71px;font-weight:500;}.cls-2,.cls-3{fill:#a5d601;}.cls-4{fill:none;stroke:#a5d601;stroke-linecap:round;stroke-linejoin:round;stroke-width:1.93px;}.cls-5{letter-spacing:.2em;}.cls-6{letter-spacing:.2em;}.cls-7{letter-spacing:0em;}.cls-8{letter-spacing:.19em;}.cls-9{letter-spacing:.19em;}.cls-10{letter-spacing:0em;}.cls-11{letter-spacing:.19em;}.cls-12{letter-spacing:.2em;}.cls-13{letter-spacing:.19em;}.cls-3{font-family:Standie-Bold, Standie;font-size:41.43px;font-weight:700;}.cls-14{letter-spacing:.14em;}</style></defs><text class="cls-2" transform="translate(6.57 128.72)"><tspan class="cls-6" x="0" y="0">Explo</tspan><tspan class="cls-13" x="52.38" y="0">r</tspan><tspan class="cls-11" x="61.81" y="0">e</tspan><tspan class="cls-5" x="73.39" y="0">. S</tspan><tspan class="cls-9" x="101.5" y="0">a</tspan><tspan class="cls-8" x="112.89" y="0">v</tspan><tspan class="cls-5" x="123.7" y="0">o</tspan><tspan class="cls-14" x="135.39" y="0">r</tspan><tspan class="cls-6" x="143.73" y="0">. Repe</tspan><tspan class="cls-12" x="206.83" y="0">a</tspan><tspan class="cls-6" x="218.39" y="0">t</tspan></text><text class="cls-3" transform="translate(5.07 103.9)"><tspan class="cls-7" x="0" y="0">B</tspan><tspan x="26.47" y="0">r</tspan><tspan class="cls-10" x="50.04" y="0">e</tspan><tspan class="cls-7" x="72.29" y="0">w</tspan><tspan class="cls-1" x="109.95" y="0">v</tspan><tspan class="cls-7" x="136.83" y="0">er</tspan><tspan x="183.9" y="0">s</tspan><tspan class="cls-7" x="204.03" y="0">e</tspan></text><path class="cls-4" d="M113.35,61.89c-2.27-2.49-5.44-3.39-8.37-2.72-.61,3.21.21,6.67,2.49,9.16,2.27,2.49,5.44,3.39,8.37,2.72.61-3.21-.21-6.67-2.49-9.16Z"/><path class="cls-4" d="M129.36,68.33c2.27-2.49,3.1-5.96,2.49-9.16-2.93-.67-6.1.23-8.37,2.72-2.27,2.49-3.1,5.96-2.49,9.16,2.93.67,6.1-.23,8.37-2.72Z"/><path class="cls-4" d="M113.35,46.96c-2.27-2.49-5.44-3.39-8.37-2.72-.61,3.21.21,6.67,2.49,9.16,2.27,2.49,5.44,3.39,8.37,2.72.61-3.21-.21-6.67-2.49-9.16Z"/><path class="cls-4" d="M129.36,53.4c2.27-2.49,3.1-5.96,2.49-9.16-2.93-.67-6.1.23-8.37,2.72-2.27,2.49-3.1,5.96-2.49,9.16,2.93.67,6.1-.23,8.37-2.72Z"/><path class="cls-4" d="M113.35,32.03c-2.27-2.49-5.44-3.39-8.37-2.72-.61,3.2.21,6.67,2.49,9.16,2.27,2.49,5.44,3.39,8.37,2.72.61-3.21-.21-6.67-2.49-9.16Z"/><path class="cls-4" d="M129.36,38.47c2.27-2.49,3.1-5.96,2.49-9.16-2.93-.67-6.1.23-8.37,2.72-2.27,2.49-3.1,5.96-2.49,9.16,2.93.67,6.1-.23,8.37-2.72Z"/><path class="cls-4" d="M122.57,23.46c0-3.52-1.66-6.61-4.16-8.4-2.5,1.79-4.16,4.88-4.16,8.4s1.66,6.61,4.16,8.4c2.5-1.79,4.16-4.88,4.16-8.4Z"/><path class="cls-4" d="M79.84,62.1c-2.27-2.44-5.44-3.33-8.37-2.67-.61,3.14.21,6.55,2.49,8.99,2.27,2.44,5.44,3.33,8.37,2.67.61-3.15-.21-6.55-2.49-8.99Z"/><path class="cls-4" d="M95.85,68.41c2.27-2.44,3.1-5.84,2.49-8.99-2.93-.66-6.1.23-8.37,2.67-2.27,2.44-3.1,5.84-2.49,8.99,2.93.66,6.1-.23,8.37-2.67Z"/><path class="cls-4" d="M79.84,47.44c-2.27-2.44-5.44-3.33-8.37-2.67-.61,3.14.21,6.55,2.49,8.99,2.27,2.44,5.44,3.33,8.37,2.67.61-3.15-.21-6.55-2.49-8.99Z"/><path class="cls-4" d="M95.85,53.76c2.27-2.44,3.1-5.84,2.49-8.99-2.93-.66-6.1.23-8.37,2.67-2.27,2.44-3.1,5.84-2.49,8.99,2.93.66,6.1-.23,8.37-2.67Z"/><path class="cls-4" d="M89.07,39.03c0-3.45-1.66-6.49-4.16-8.25-2.5,1.76-4.16,4.79-4.16,8.25s1.66,6.49,4.16,8.25c2.5-1.76,4.16-4.79,4.16-8.25Z"/><path class="cls-4" d="M146.85,62.1c-2.27-2.44-5.44-3.33-8.37-2.67-.61,3.14.21,6.55,2.49,8.99,2.27,2.44,5.44,3.33,8.37,2.67.61-3.15-.21-6.55-2.49-8.99Z"/><path class="cls-4" d="M162.86,68.41c2.27-2.44,3.1-5.84,2.49-8.99-2.93-.66-6.1.23-8.37,2.67-2.27,2.44-3.1,5.84-2.49,8.99,2.93.66,6.1-.23,8.37-2.67Z"/><path class="cls-4" d="M146.85,47.44c-2.27-2.44-5.44-3.33-8.37-2.67-.61,3.14.21,6.55,2.49,8.99,2.27,2.44,5.44,3.33,8.37,2.67.61-3.15-.21-6.55-2.49-8.99Z"/><path class="cls-4" d="M162.86,53.76c2.27-2.44,3.1-5.84,2.49-8.99-2.93-.66-6.1.23-8.37,2.67-2.27,2.44-3.1,5.84-2.49,8.99,2.93.66,6.1-.23,8.37-2.67Z"/><path class="cls-4" d="M156.08,39.03c0-3.45-1.66-6.49-4.16-8.25-2.5,1.76-4.16,4.79-4.16,8.25s1.66,6.49,4.16,8.25c2.5-1.76,4.16-4.79,4.16-8.25Z"/></svg>